<!--?xml version="1.0" standalone="no"?-->
              <svg id="sw-js-blob-svg" viewBox="0 0 100 100" xmlns="http://www.w3.org/2000/svg" version="1.1">
                    <defs> 
                        <linearGradient id="sw-gradient" x1="0" x2="1" y1="1" y2="0">
                            <stop id="stop1" stop-color="rgba(69.62, 22.365, 0, 1)" offset="0%"></stop>
                            <stop id="stop2" stop-color="rgba(145.496, 160.411, 255, 0.21)" offset="100%"></stop>
                        </linearGradient>
                    </defs>
                <path fill="url(#sw-gradient)" d="M12.9,-19.5C16.7,-20.1,19.9,-16.7,19,-12.8C18,-8.9,12.8,-4.5,15,1.3C17.2,7,26.7,13.9,27,16.7C27.3,19.5,18.4,18,12.4,21.7C6.4,25.3,3.2,34.1,1,32.4C-1.2,30.7,-2.4,18.5,-8.1,14.6C-13.7,10.7,-23.9,15.2,-30.7,14.1C-37.5,13.1,-41,6.5,-37.1,2.3C-33.2,-2,-21.9,-4.1,-16.4,-7.4C-10.9,-10.6,-11.1,-15.2,-9.3,-15.8C-7.6,-16.4,-3.8,-13.1,0.4,-13.8C4.5,-14.4,9,-18.9,12.9,-19.5Z" width="100%" height="100%" transform="translate(50 50)" stroke-width="0" style="transition: all 0.3s ease 0s;" stroke="url(#sw-gradient)"></path>
              </svg>