<!--?xml version="1.0" standalone="no"?-->
              <svg id="sw-js-blob-svg" viewBox="0 0 100 100" xmlns="http://www.w3.org/2000/svg" version="1.1">
                    <defs> 
                        <linearGradient id="sw-gradient" x1="0" x2="1" y1="1" y2="0">
                            <stop id="stop1" stop-color="rgba(248, 117, 55, 1)" offset="0%"></stop>
                            <stop id="stop2" stop-color="rgba(31, 251, 68.417, 1)" offset="100%"></stop>
                        </linearGradient>
                    </defs>
                <path fill="url(#sw-gradient)" d="M24.4,-33.9C29.9,-29.6,31.3,-20.1,31.4,-12.1C31.5,-4,30.2,2.7,27.7,8.5C25.1,14.2,21.2,19,16.4,23.6C11.6,28.2,5.8,32.6,-1.6,34.8C-8.9,36.9,-17.8,36.8,-23.8,32.6C-29.9,28.4,-33.1,20.1,-35.8,11.6C-38.5,3.2,-40.8,-5.4,-39.6,-14.1C-38.5,-22.7,-33.8,-31.5,-26.7,-35.2C-19.5,-38.9,-9.7,-37.6,-0.1,-37.4C9.5,-37.2,18.9,-38.2,24.4,-33.9Z" width="100%" height="100%" transform="translate(50 50)" stroke-width="0" style="transition: all 0.3s ease 0s;" stroke="url(#sw-gradient)"></path>
              </svg>